<svg width="24" height="19" viewBox="0 0 24 19" fill="none" xmlns="http://www.w3.org/2000/svg">
<path d="M23.0391 4.48438H20.4141V3.07812C20.4141 2.29688 20.1406 1.63281 19.5938 1.08594C19.0469 0.539062 18.3828 0.265625 17.6016 0.265625H14.7891C14.5234 0.265625 14.3008 0.355469 14.1211 0.535156C13.9414 0.714844 13.8516 0.9375 13.8516 1.20312C13.8516 1.46875 13.9414 1.69141 14.1211 1.87109C14.3008 2.05078 14.5234 2.14062 14.7891 2.14062H17.6016C17.8672 2.14062 18.0898 2.23047 18.2695 2.41016C18.4492 2.58984 18.5391 2.8125 18.5391 3.07812V4.48438H5.41406V3.07812C5.41406 2.8125 5.50391 2.58984 5.68359 2.41016C5.86328 2.23047 6.08594 2.14062 6.35156 2.14062H9.16406C9.42969 2.14062 9.65234 2.05078 9.83203 1.87109C10.0117 1.69141 10.1016 1.46875 10.1016 1.20312C10.1016 0.9375 10.0117 0.714844 9.83203 0.535156C9.65234 0.355469 9.42969 0.265625 9.16406 0.265625H6.35156C5.57031 0.265625 4.90625 0.539062 4.35938 1.08594C3.8125 1.63281 3.53906 2.29688 3.53906 3.07812V4.48438H0.914062C0.617188 4.48438 0.375 4.60156 0.1875 4.83594C0 5.07031 -0.0625 5.33594 0 5.63281L2.85938 18.1016C2.90625 18.3203 3.01562 18.4961 3.1875 18.6289C3.35938 18.7617 3.55469 18.8281 3.77344 18.8281H20.1797C20.3984 18.8281 20.5938 18.7617 20.7656 18.6289C20.9375 18.4961 21.0469 18.3203 21.0938 18.1016L23.9531 5.63281C24.0156 5.33594 23.9531 5.07031 23.7656 4.83594C23.5781 4.60156 23.3359 4.48438 23.0391 4.48438ZM19.4297 16.9531H4.52344L2.08594 6.35938H21.8672L19.4297 16.9531ZM10.5703 9.3125V14C10.5703 14.2656 10.4805 14.4883 10.3008 14.668C10.1211 14.8477 9.89844 14.9375 9.63281 14.9375C9.36719 14.9375 9.14453 14.8477 8.96484 14.668C8.78516 14.4883 8.69531 14.2656 8.69531 14V9.3125C8.69531 9.04688 8.78516 8.82422 8.96484 8.64453C9.14453 8.46484 9.36719 8.375 9.63281 8.375C9.89844 8.375 10.1211 8.46484 10.3008 8.64453C10.4805 8.82422 10.5703 9.04688 10.5703 9.3125ZM15.2578 9.3125V14C15.2578 14.2656 15.168 14.4883 14.9883 14.668C14.8086 14.8477 14.5859 14.9375 14.3203 14.9375C14.0547 14.9375 13.832 14.8477 13.6523 14.668C13.4727 14.4883 13.3828 14.2656 13.3828 14V9.3125C13.3828 9.04688 13.4727 8.82422 13.6523 8.64453C13.832 8.46484 14.0547 8.375 14.3203 8.375C14.5859 8.375 14.8086 8.46484 14.9883 8.64453C15.168 8.82422 15.2578 9.04688 15.2578 9.3125Z" fill="#1B2336"/>
</svg>
